<svg width="64" height="57" viewBox="0 0 64 57" fill="none" xmlns="http://www.w3.org/2000/svg">
<g opacity="0.6">
<path d="M36.5846 47.1001V46.6001H36.0846H4.51057C3.44602 46.6001 2.42561 46.1795 1.67369 45.4317C0.921866 44.6841 0.5 43.6706 0.5 42.6144V4.48573C0.5 3.42954 0.921866 2.41605 1.67369 1.66837C2.42561 0.920591 3.44602 0.5 4.51057 0.5H58.6375C59.702 0.5 60.7224 0.92059 61.4744 1.66837C62.2262 2.41605 62.648 3.42954 62.648 4.48573V42.6144C62.648 43.6706 62.2262 44.6841 61.4744 45.4317C60.7224 46.1795 59.702 46.6001 58.6375 46.6001H54.1269H53.6269V47.1001V53.8275C53.625 54.1403 53.5384 54.447 53.3758 54.7154C53.2131 54.9841 52.9801 55.2046 52.7013 55.353C52.4224 55.5015 52.1082 55.5725 51.7919 55.5582C51.476 55.5439 51.1699 55.4452 50.9061 55.2726C50.9058 55.2724 50.9055 55.2722 50.9051 55.272L45.3816 51.6174L45.1069 51.4356L44.8314 51.6164L39.2646 55.2698C39.264 55.2702 39.2633 55.2706 39.2627 55.2711C39.004 55.437 38.7058 55.5326 38.3978 55.5479C38.0904 55.5632 37.7845 55.4979 37.5106 55.3588C37.2316 55.2103 36.9985 54.9898 36.8356 54.7209C36.6721 54.4509 36.5854 54.1421 36.5846 53.8274V47.1001ZM49.3335 50.0469L50.1163 50.5838V49.6345V41.6724V40.9103L49.4172 41.2137C48.0574 41.8039 46.5896 42.1086 45.1057 42.1086C43.6219 42.1086 42.1541 41.8039 40.7942 41.2137L40.0952 40.9103V41.6724V49.6345V50.5838L40.878 50.0469L44.1435 47.8072C44.4292 47.6212 44.7637 47.522 45.1057 47.522C45.4478 47.522 45.7823 47.6212 46.068 47.8072L49.3335 50.0469ZM58.6375 43.1144H59.1375V42.6144V4.48573V3.98573H58.6375H4.51057H4.01057V4.48573V42.6144V43.1144H4.51057H36.0846H36.5846V42.6144V38.1287V37.9599L36.4824 37.8257C35.0747 35.9775 34.3183 33.7202 34.3293 31.4025L34.3293 31.399C34.3234 28.7593 35.2977 26.21 37.0661 24.2402C38.8346 22.2704 41.2727 21.0188 43.913 20.7265C46.5532 20.4341 49.2088 21.1217 51.37 22.6568C53.5312 24.1918 55.0457 26.4659 55.6237 29.0424L55.6246 29.0465C55.9771 30.5581 55.9901 32.1284 55.6626 33.6456C55.3352 35.1628 54.6753 36.5898 53.7299 37.8247L53.6269 37.9593V38.1287V42.6144V43.1144H54.1269H58.6375ZM42.0074 37.9371C43.4183 38.5982 45.0055 38.79 46.5344 38.4844C47.9379 38.2038 49.2271 37.517 50.2399 36.5098C51.2527 35.5025 51.944 34.2197 52.2264 32.8224C52.534 31.3002 52.3409 29.72 51.6756 28.3157C51.0103 26.9114 49.9085 25.7579 48.5336 25.0253C47.1588 24.2927 45.5836 24.0197 44.041 24.2465C42.4983 24.4733 41.0696 25.1879 39.9663 26.2851C38.863 27.3823 38.1437 28.804 37.9154 30.34C37.6871 31.876 37.962 33.4441 38.6992 34.8124C39.4363 36.1806 40.5964 37.276 42.0074 37.9371Z" fill="white" stroke="#1F28F1"/>
<path d="M29.3188 23.9859H11.2765C10.8109 23.9859 10.3645 23.801 10.0353 23.4718C9.70611 23.1426 9.52118 22.6962 9.52118 22.2306C9.52118 21.7651 9.70611 21.3186 10.0353 20.9895C10.3645 20.6603 10.8109 20.4753 11.2765 20.4753H29.3188C29.7843 20.4753 30.2308 20.6603 30.5599 20.9895C30.8891 21.3186 31.0741 21.7651 31.0741 22.2306C31.0741 22.6962 30.8891 23.1426 30.5599 23.4718C30.2308 23.801 29.7843 23.9859 29.3188 23.9859Z" fill="white" stroke="#1F28F1"/>
<path d="M29.3188 33.0072H11.2765C10.8109 33.0072 10.3645 32.8222 10.0353 32.493C9.70611 32.1639 9.52118 31.7174 9.52118 31.2519C9.52118 30.7863 9.70611 30.3399 10.0353 30.0107C10.3645 29.6815 10.8109 29.4966 11.2765 29.4966H29.3188C29.7843 29.4966 30.2308 29.6815 30.5599 30.0107C30.8891 30.3399 31.0741 30.7863 31.0741 31.2519C31.0741 31.7174 30.8891 32.1639 30.5599 32.493C30.2308 32.8222 29.7843 33.0072 29.3188 33.0072Z" fill="white" stroke="#1F28F1"/>
</g>
</svg>
