<svg width="52" height="59" viewBox="0 0 52 59" fill="none" xmlns="http://www.w3.org/2000/svg">
<g opacity="0.6">
<path d="M50.972 26.5537C50.972 40.2665 41.0169 53.11 27.4162 56.8677C26.4908 57.1201 25.481 57.1201 24.5556 56.8677C10.9551 53.11 1 40.2665 1 26.5537V14.243C1 11.9435 2.73869 9.33556 4.89797 8.46624L20.5175 2.07263C24.0228 0.642458 27.9768 0.642458 31.4821 2.07263L47.1018 8.46624C49.233 9.33556 51 11.9435 51 14.243L50.972 26.5537Z" stroke="white" stroke-width="2" stroke-linecap="round" stroke-linejoin="round"/>
<path d="M25.9863 30.4242C29.0839 30.4242 31.5948 27.9132 31.5948 24.8157C31.5948 21.7182 29.0839 19.2072 25.9863 19.2072C22.8887 19.2072 20.3778 21.7182 20.3778 24.8157C20.3778 27.9132 22.8887 30.4242 25.9863 30.4242Z" stroke="white" stroke-width="2" stroke-miterlimit="10" stroke-linecap="round" stroke-linejoin="round"/>
<path d="M25.9863 30.4242V38.837" stroke="white" stroke-width="2" stroke-miterlimit="10" stroke-linecap="round" stroke-linejoin="round"/>
</g>
</svg>
