<svg width="76" height="57" viewBox="0 0 76 57" fill="none" xmlns="http://www.w3.org/2000/svg">
<g opacity="0.6">
<path d="M68.6355 40.9442L68.6354 40.9442C68.5745 40.9373 68.5133 40.9311 68.4519 40.9258L67.8369 40.9C67.6559 40.9006 67.4768 40.9082 67.3005 40.9225L67.3003 40.9226C67.2592 40.9259 67.2181 40.9296 67.177 40.9337C67.0362 40.9478 66.8965 40.9661 66.7571 40.9889C66.7341 40.9926 66.7112 40.9965 66.6882 41.0005C66.6614 41.0051 66.6345 41.01 66.6076 41.015M68.6355 40.9442L66.4244 40.0319M68.6355 40.9442C68.7604 40.9585 68.8851 40.9763 69.0088 40.9975M68.6355 40.9442L69.0088 40.9975M66.6076 41.015L66.4244 40.0319M66.6076 41.015C66.6076 41.015 66.6076 41.015 66.6077 41.015L66.4244 40.0319M66.6076 41.015C66.4893 41.037 66.3721 41.0621 66.2583 41.0897L66.2581 41.0898C66.1802 41.1086 66.1027 41.1288 66.0255 41.1503C65.9254 41.1783 65.8261 41.2086 65.7268 41.2413C65.6702 41.26 65.6138 41.2794 65.5586 41.2993L65.5585 41.2993C65.441 41.3415 65.3248 41.3869 65.209 41.4358M66.4244 40.0319C66.2888 40.0572 66.1543 40.086 66.0231 40.1177C65.9337 40.1394 65.8448 40.1625 65.7562 40.1873C65.6413 40.2194 65.5273 40.2541 65.4136 40.2917C65.3486 40.3131 65.2839 40.3354 65.2205 40.3582C65.0857 40.4066 64.9524 40.4586 64.82 40.5145M65.209 41.4358L64.82 40.5145M65.209 41.4358C65.209 41.4358 65.209 41.4358 65.2089 41.4358L64.82 40.5145M65.209 41.4358C65.1661 41.4539 65.1234 41.4724 65.0809 41.4914M64.82 40.5145C64.7702 40.5356 64.7207 40.5571 64.6714 40.5791L65.0979 41.483L65.0809 41.4914M67.2193 39.9258C67.1721 39.9297 67.1249 39.934 67.0778 39.9386C66.9162 39.9548 66.7559 39.9758 66.5961 40.0019L67.2193 39.9258ZM67.2193 39.9258C67.4292 39.9087 67.6422 39.9 67.8571 39.9L67.2193 39.9258ZM65.0809 41.4914L64.594 41.7322M65.0809 41.4914C65.0755 41.4938 65.0701 41.4962 65.0647 41.4987C64.9491 41.5507 64.8349 41.6058 64.7224 41.664C64.7224 41.6641 64.7223 41.6641 64.7223 41.6641C64.721 41.6648 64.7197 41.6655 64.7183 41.6661L64.6095 41.7238C64.6082 41.7245 64.6069 41.7252 64.6056 41.7259C64.6017 41.728 64.5978 41.7301 64.594 41.7322M64.594 41.7322C62.3038 42.9782 60.7143 45.5071 60.7143 48.45C60.7143 52.6663 63.9577 56 67.8571 56C71.7566 56 75 52.6663 75 48.45C75 44.9249 72.7232 42.0033 69.6987 41.1531L69.6986 41.1531C69.6683 41.1446 69.6378 41.1362 69.605 41.1275M64.594 41.7322L64.577 41.7406L64.1177 40.8529C61.5019 42.2753 59.7143 45.1434 59.7143 48.45C59.7143 53.172 63.36 57 67.8571 57C72.3543 57 76 53.172 76 48.45C76 44.4946 73.442 41.1666 69.9693 40.1904C69.9344 40.1806 69.8994 40.171 69.8621 40.1611C69.7029 40.1188 69.5417 40.0814 69.381 40.0495C69.3141 40.0362 69.2468 40.0237 69.1776 40.0118M69.605 41.1275L68.5363 39.9293C68.6075 39.9355 68.6784 39.9426 68.7491 39.9507C68.8925 39.9671 69.0356 39.9875 69.1776 40.0118M69.605 41.1275C69.4662 41.0906 69.3259 41.058 69.1863 41.0303L69.1861 41.0303C69.1279 41.0187 69.0693 41.0079 69.0088 40.9975M69.605 41.1275L69.0088 40.9975M69.1776 40.0118L69.0088 40.9975M69.1776 40.0118L69.0086 40.9975C69.0087 40.9975 69.0087 40.9975 69.0088 40.9975M8.12149 40.9L8.77153 40.9288C8.81773 40.933 8.86378 40.9378 8.9097 40.9429L8.90982 40.9429C9.04088 40.9577 9.17201 40.9764 9.302 40.9988C9.38033 41.0123 9.45643 41.0268 9.532 41.0425L9.53205 41.0425C9.65531 41.0682 9.77775 41.0973 9.89899 41.1297C9.96327 41.1469 10.0257 41.1646 10.0877 41.1831L10.0881 41.1832C10.2699 41.2374 10.4516 41.3001 10.6301 41.3702L10.6302 41.3702L10.6795 41.3898L8.12149 40.9ZM8.12149 40.9C7.80752 40.901 7.49885 40.9233 7.19708 40.9655L7.197 40.9655L7.13417 40.9746L7.13408 40.9746M8.12149 40.9L7.13408 40.9746M7.13408 40.9746C7.08594 40.9818 7.03804 40.9895 6.99127 40.9975L6.99118 40.9975C3.6286 41.5732 1 44.6599 1 48.45C1 52.6663 4.24338 56 8.14286 56C12.0423 56 15.2857 52.6663 15.2857 48.45C15.2857 45.4258 13.6074 42.8395 11.2137 41.6314M7.13408 40.9746L11.2137 41.6314M11.2137 41.6314C11.1909 41.6199 11.1681 41.6086 11.145 41.5972L11.5854 40.6994M11.2137 41.6314L11.5854 40.6994M11.5854 40.6994L11.145 41.5972C10.993 41.5226 10.838 41.4535 10.6796 41.3899L11.5854 40.6994ZM45.8968 8.53156C45.8964 8.33324 45.8887 8.1369 45.8741 7.9428L45.8402 7.60231C45.8355 7.57324 45.8319 7.54235 45.8297 7.50984C45.346 3.79496 42.3274 1 38.754 1C35.3005 1 32.367 3.60843 31.7357 7.13817C31.7291 7.17509 31.7227 7.21211 31.7166 7.24954C31.7166 7.24955 31.7165 7.24956 31.7165 7.24957L30.7298 7.08756C30.6518 7.56277 30.6111 8.0514 30.6111 8.55L45.8968 8.53156ZM45.8968 8.53156L45.8721 9.18357C45.8672 9.24612 45.8615 9.30844 45.8552 9.37052C45.8416 9.50394 45.8248 9.63542 45.8048 9.76569M45.8968 8.53156L45.6926 10.3504M45.8048 9.76569C45.8048 9.76567 45.8048 9.76565 45.8048 9.76564L46.7933 9.91697L45.8048 9.76569ZM45.8048 9.76569C45.793 9.84308 45.7801 9.91965 45.7661 9.99577L45.7661 9.99583C45.7443 10.1148 45.7198 10.2332 45.6926 10.3504M45.6926 10.3504L46.6669 10.576M45.6926 10.3504L46.7497 10.1762C46.7251 10.3104 46.6975 10.4438 46.6669 10.576M46.6669 10.576C46.6469 10.6621 46.626 10.7466 46.604 10.8305L45.6368 10.5762L45.6368 10.5762C45.6564 10.5019 45.6749 10.4271 45.6926 10.3506L46.6669 10.576ZM52.3087 28.5908L52.2937 28.6232L40.4282 48.1123L40.3998 48.1588L40.3767 48.2082C40.2052 48.5744 39.9772 48.9067 39.7048 49.1931C39.051 49.8807 38.1473 50.3 37.1518 50.3C35.1991 50.3 33.5714 48.6673 33.5714 46.5975C33.5714 45.6759 33.8957 44.838 34.4295 44.1927L34.5954 44.0125L35.2811 43.2676L35.2647 43.2528L50.3445 26.9308C50.5816 26.7494 50.8578 26.65 51.1473 26.65C51.8352 26.65 52.4375 27.23 52.4375 28.0012C52.4375 28.2152 52.3906 28.4144 52.3087 28.5908ZM50.7273 10.0531C60.3937 14.6454 67.4335 24.3234 68.7468 35.8728C68.4528 35.8503 68.1561 35.8389 67.8571 35.8389C66.8452 35.8389 65.8616 35.9695 64.9214 36.2155C63.7551 26.4056 57.8323 18.1247 49.6211 14.016C50.1869 12.7926 50.5676 11.4577 50.7273 10.0531ZM26.7171 9.30658C26.7979 10.7322 27.1053 12.0959 27.6031 13.3577C18.6727 17.1774 12.1321 25.8176 10.8794 36.1657C10.0001 35.9517 9.08355 35.8389 8.14286 35.8389C7.77506 35.8389 7.41091 35.8561 7.05115 35.8899C8.41386 23.8341 16.0206 13.8103 26.3422 9.45741L26.7171 9.30658Z" fill="white" stroke="#1F28F1" stroke-width="2"/>
</g>
</svg>
