<svg width="58" height="58" viewBox="0 0 58 58" fill="none" xmlns="http://www.w3.org/2000/svg">
<g opacity="0.6">
<path d="M51.2862 1H6.71382C3.55817 1 1 3.55817 1 6.71382V51.2862C1 54.4418 3.55817 57 6.71382 57H51.2862C54.4418 57 57 54.4418 57 51.2862V6.71382C57 3.55817 54.4418 1 51.2862 1Z" stroke="white" stroke-width="2" stroke-linecap="round" stroke-linejoin="round"/>
<path d="M9.83136 44.4422V26.3378" stroke="white" stroke-width="2" stroke-linecap="round" stroke-linejoin="round"/>
<path d="M9.83136 17.8182V13.5579" stroke="white" stroke-width="2" stroke-linecap="round" stroke-linejoin="round"/>
<path d="M9.83139 26.3366C12.1837 26.3366 14.0906 24.4297 14.0906 22.0774C14.0906 19.7251 12.1837 17.8182 9.83139 17.8182C7.47911 17.8182 5.5722 19.7251 5.5722 22.0774C5.5722 24.4297 7.47911 26.3366 9.83139 26.3366Z" stroke="white" stroke-width="2" stroke-linecap="round" stroke-linejoin="round"/>
<path d="M22.6101 44.4421V39.8574" stroke="white" stroke-width="2" stroke-linecap="round" stroke-linejoin="round"/>
<path d="M22.6101 31.3379V13.5579" stroke="white" stroke-width="2" stroke-linecap="round" stroke-linejoin="round"/>
<path d="M22.6101 39.8563C24.9624 39.8563 26.8693 37.9494 26.8693 35.5971C26.8693 33.2448 24.9624 31.3379 22.6101 31.3379C20.2578 31.3379 18.3509 33.2448 18.3509 35.5971C18.3509 37.9494 20.2578 39.8563 22.6101 39.8563Z" stroke="white" stroke-width="2" stroke-linecap="round" stroke-linejoin="round"/>
<path d="M35.3899 44.4422V26.3378" stroke="white" stroke-width="2" stroke-linecap="round" stroke-linejoin="round"/>
<path d="M35.3899 17.8182V13.5579" stroke="white" stroke-width="2" stroke-linecap="round" stroke-linejoin="round"/>
<path d="M35.3899 26.3366C37.7422 26.3366 39.6491 24.4297 39.6491 22.0774C39.6491 19.7251 37.7422 17.8182 35.3899 17.8182C33.0376 17.8182 31.1307 19.7251 31.1307 22.0774C31.1307 24.4297 33.0376 26.3366 35.3899 26.3366Z" stroke="white" stroke-width="2" stroke-linecap="round" stroke-linejoin="round"/>
<path d="M48.1686 44.4421V34.6626" stroke="white" stroke-width="2" stroke-linecap="round" stroke-linejoin="round"/>
<path d="M48.1686 26.1431V13.5579" stroke="white" stroke-width="2" stroke-linecap="round" stroke-linejoin="round"/>
<path d="M48.1686 34.6614C50.5209 34.6614 52.4278 32.7545 52.4278 30.4023C52.4278 28.05 50.5209 26.1431 48.1686 26.1431C45.8164 26.1431 43.9095 28.05 43.9095 30.4023C43.9095 32.7545 45.8164 34.6614 48.1686 34.6614Z" stroke="white" stroke-width="2" stroke-linecap="round" stroke-linejoin="round"/>
</g>
</svg>
