<svg width="191" height="49" viewBox="0 0 191 49" fill="none" xmlns="http://www.w3.org/2000/svg">
<g clip-path="url(#clip0_36_73)">
<path d="M60.9094 39.0498V9.76245H72.3769C78.5807 9.76245 82.7165 14.4559 82.7165 20.0881C82.7165 26.0958 78.5807 30.4138 72.3769 30.4138H67.6771V39.2375H60.9094V39.0498ZM67.6771 24.0307H72.189C74.6328 24.0307 76.3248 22.341 76.3248 20.0881C76.3248 17.6475 74.8208 16.1456 72.189 16.1456H67.6771V24.0307Z" fill="#EFEFEF"/>
<path d="M83.8445 28.5363C83.8445 22.3409 88.9203 17.4597 95.312 17.4597C101.704 17.4597 106.592 22.3409 106.592 28.5363C106.592 34.7317 101.704 39.613 95.312 39.613C88.9203 39.613 83.8445 34.7317 83.8445 28.5363ZM100.2 28.5363C100.2 25.5325 98.1319 23.4674 95.124 23.4674C92.1161 23.4674 90.0482 25.5325 90.0482 28.5363C90.0482 31.5402 92.1161 33.6053 95.124 33.6053C98.1319 33.6053 100.2 31.3524 100.2 28.5363Z" fill="#EFEFEF"/>
<path d="M109.411 39.0498V9.76245H115.803V39.2375H109.411V39.0498Z" fill="#EFEFEF"/>
<path d="M119.563 12.0153C119.563 10.1379 121.067 8.63599 122.947 8.63599C125.015 8.63599 126.519 10.1379 126.519 12.0153C126.519 14.0804 125.015 15.3946 122.947 15.3946C120.879 15.3946 119.563 13.8927 119.563 12.0153ZM119.751 39.0498V17.8352H126.143V39.0498H119.751Z" fill="#EFEFEF"/>
<path d="M130.842 39.0498V9.76245H148.514V13.3295H134.602V22.5287H147.574V26.0958H134.602V35.6705H148.514V39.2375H130.842V39.0498Z" fill="#EFEFEF"/>
<path d="M150.77 39.0498V36.2337L163.929 21.4023H150.958V18.0229H168.441V21.0268L155.469 35.6705H168.817V39.0498H150.77Z" fill="#EFEFEF"/>
<path d="M169.945 28.5363C169.945 22.3409 174.457 17.6475 180.472 17.6475C186.488 17.6475 190.812 22.1532 190.812 28.3486C190.812 28.9118 190.812 29.2873 190.812 29.8505H173.705C174.269 33.7931 177.089 36.2337 180.848 36.2337C183.856 36.2337 186.3 34.544 187.428 32.1034H191.188C189.496 36.6091 185.548 39.4252 180.848 39.4252C174.645 39.613 169.945 34.7318 169.945 28.5363ZM173.705 26.659H187.052C186.676 23.2796 184.044 20.839 180.472 20.839C177.089 21.0268 174.457 23.2796 173.705 26.659Z" fill="#EFEFEF"/>
<path d="M0 20.6513C0 12.7663 0 8.82375 0.939961 7.50958C1.87992 6.1954 6.01575 4.88123 13.9114 2.44061L15.4154 1.87739C19.7392 0.750958 21.8071 0 23.875 0C25.9429 0 28.1988 0.750958 32.3346 2.06513L33.8386 2.44061C41.9222 4.88123 45.8701 6.1954 46.81 7.50958C47.75 8.82375 47.75 12.7663 47.75 20.6513C47.75 21.7778 47.75 23.092 47.75 24.5939C47.75 38.4866 36.4705 45.0575 29.3268 48.0613C27.4469 48.8123 26.5069 49.1877 23.687 49.1877C20.8671 49.1877 19.9272 48.8123 18.0472 48.0613C11.2795 45.0575 0 38.2989 0 24.5939C0 23.092 0 21.7778 0 20.6513Z" fill="url(#paint0_linear_36_73)"/>
<path d="M25.9429 26.659H25.191C27.4469 26.659 29.1388 24.9694 29.1388 22.7165C29.1388 20.0881 27.0709 18.023 24.439 18.023C21.8071 18.023 19.5512 20.2759 19.5512 22.9042V31.3525C19.5512 33.6054 17.8593 35.295 15.6034 35.295C13.3474 35.295 11.6555 33.6054 11.6555 31.3525V22.341C11.6555 15.5824 17.1073 9.9502 24.063 9.9502C31.0187 9.9502 36.4705 15.3946 36.4705 22.341V30.2261C36.4705 33.0422 34.2146 35.295 31.3947 35.295C30.4547 35.295 29.7028 35.1073 28.9508 34.5441L26.6949 33.0422" stroke="white" stroke-width="1.2322" stroke-linecap="round" stroke-linejoin="round"/>
<path d="M22.5591 30.0383L30.0788 31.728L27.0709 33.2299L26.6949 36.6092L22.5591 30.0383Z" fill="white"/>
</g>
<defs>
<linearGradient id="paint0_linear_36_73" x1="0" y1="24.5283" x2="47.8855" y2="24.5283" gradientUnits="userSpaceOnUse">
<stop offset="4.87837e-07" stop-color="#0D6EFD"/>
<stop offset="1" stop-color="#3F26A5"/>
</linearGradient>
<clipPath id="clip0_36_73">
<rect width="191" height="49" fill="white"/>
</clipPath>
</defs>
</svg>
